<?xml version="1.0" encoding="utf-8"?>
<!-- Generator: Adobe Illustrator 23.0.1, SVG Export Plug-In . SVG Version: 6.00 Build 0)  -->
<svg version="1.1" id="图层_1" xmlns="http://www.w3.org/2000/svg" xmlns:xlink="http://www.w3.org/1999/xlink" x="0px" y="0px"
	 viewBox="0 0 1200 1800" style="enable-background:new 0 0 1200 1800;" xml:space="preserve">
<style type="text/css">
	.st0{fill:#8C8E8E;}
	.st1{fill:#4D4D4D;}
	.st2{fill:none;stroke:#000000;stroke-width:7;stroke-linecap:round;stroke-linejoin:round;stroke-miterlimit:10;}
	.st3{fill:#FFFFFF;}
	.st4{fill:#B68D5B;}
	.st5{fill:#970000;}
	.st6{fill:#FFF5E8;}
	.st7{fill:#E8DACA;}
	.st8{fill:#720000;}
	.st9{fill:#D50000;}
	.st10{fill:#79270A;}
	.st11{fill:#532214;}
	.st12{fill:none;stroke:#000000;stroke-width:4;stroke-linecap:round;stroke-linejoin:round;stroke-miterlimit:10;}
	.st13{fill:none;stroke:#000000;stroke-width:5;stroke-linecap:round;stroke-linejoin:round;stroke-miterlimit:10;}
	.st14{fill:none;stroke:#000000;stroke-width:2;stroke-linecap:round;stroke-linejoin:round;stroke-miterlimit:10;}
</style>
<path class="st0" d="M439.81,1037.86c0,0,270.64,17.72,397.58,121c-43.22,38.89-172.86,121-172.86,121l-103.72,56.18v133.97
	c0,0-367.33-38.89-393.26-125.32c0-82.11,0-121,0-121C167.57,1223.68,228.86,1102.68,439.81,1037.86z"/>
<path class="st1" d="M837.39,1162.66l-2.62,135.01c0,0-70.67,115.16-276.13,170.13c0-56.18,0-133.48,0-133.48
	S733.67,1253.41,837.39,1162.66z"/>
<path class="st2" d="M165.39,1221.52c0,0,207.43,112.36,393.26,112.36c77.79-30.25,276.58-155.57,276.58-177.18
	s-211.75-108.04-393.26-121C359.86,1057.3,208.61,1139.41,165.39,1221.52z"/>
<path class="st2" d="M835.22,1156.7v146.93c0,0-77.79,108.04-276.58,164.22v-133.97"/>
<path class="st2" d="M165.39,1221.52v121c0,0,34.57,86.43,393.26,125.32"/>
<ellipse cx="487.34" cy="1193.43" rx="216.08" ry="95.07"/>
<g>
	<path class="st3" d="M316.5,1197.91c-1.54-3.46-2.45-7.08-2.84-10.81c-0.37-3.72-0.1-7.55,1.03-11.17
		c1.15-3.61,3.18-6.94,5.84-9.64c2.67-2.69,5.84-4.81,9.2-6.45c0.48-0.23,1.05-0.03,1.28,0.44s0.03,1.05-0.44,1.28
		c0,0-0.01,0-0.01,0.01c-3.23,1.52-6.24,3.5-8.76,5.98c-2.51,2.49-4.42,5.54-5.54,8.89c-1.1,3.36-1.4,6.97-1.09,10.52
		c0.32,3.54,1.19,7.12,2.59,10.35l0.02,0.04c0.15,0.35-0.01,0.76-0.36,0.91C317.06,1198.41,316.65,1198.25,316.5,1197.91z"/>
</g>
<g>
	<path class="st3" d="M359.41,1143.51l-9.97,7.09c-0.45,0.32-1.08,0.22-1.4-0.23c-0.32-0.45-0.22-1.08,0.23-1.4
		c0.02-0.02,0.05-0.03,0.07-0.04l10.5-6.27c0.24-0.14,0.55-0.07,0.7,0.18C359.69,1143.07,359.63,1143.36,359.41,1143.51z"/>
</g>
<path class="st4" d="M7,2291"/>
<path class="st5" d="M-134,2280"/>
<path class="st5" d="M9,2256"/>
<path class="st6" d="M989.18,1218.64c0,0,34.38-2.88,51.27-42.48c16.47-6.62,45.25,17.35,45.25,17.35l35.39,40.45l-14.03,60.31
	l-96.59-15.85C1010.47,1278.42,980.27,1244.09,989.18,1218.64z"/>
<path class="st7" d="M993.45,1236.06c0,0,41.44-5.72,59.3-29.3c11.28-12.74,48.55,18.76,45.78,52.68
	c14.14,7.98,26.35-16.06,26.35-16.06l-18.95-26.75c0,0-27.79-41.94-65.47-40.46c-14.1,19.34-17.35,45.25-51.27,42.48
	C982.14,1235.14,993.45,1236.06,993.45,1236.06z"/>
<path class="st8" d="M395.18,352.96c0,0-26.86-5.61-20.37-71.09s36.04-134.77,61.98-117.86c25.93,16.91,33.62,104.04-12.9,171.94
	c-11.28,12.74-7.52,8.49-7.52,8.49l-2.84-7.06c0,0,21.14-35.83,17.72-105.54c-3.35-28.73-16.06-26.35-21.69-13.15
	c-5.17,7.55-33.78,79.19-12.97,130.97C399.89,351.07,395.18,352.96,395.18,352.96z"/>
<path class="st9" d="M388.56,336.49c0,0,1.11-180.87,57.2-156.95c-5.68-14.12-17.93-17.4-17.93-17.4l-29.34,32.3
	c0,0-47.24,83.23-21.24,141.12c11.33,14.58,14.82,16.09,14.82,16.09S394.69,344.95,388.56,336.49z"/>
<path class="st10" d="M386.73,372.76l587.84,843.55l65.88-40.15L445.09,341.1C445.09,341.1,407.41,342.58,386.73,372.76z"/>
<polygon class="st11" points="424.87,345.21 650.53,668.59 659.9,637.48 445.09,341.1 "/>
<path class="st11" d="M637.31,649.3l373.93,522.2c0,0,4.96,34.25-44.04,32.08c9.88,12.43,10.92,15.94,10.92,15.94l36.51-7.63
	l21.25-26.59l1.73-16.2l-91.35-132.04L641.49,612.08L637.31,649.3z"/>
<g id="XMLID_1_">
	<g>
		<path d="M1126.39,1308.37c-17.37,31.59-66.34,45.8-91.76,50.55c39.04-32.09,18.3-42.89-15.64-59.32
			c-57.04-26.28-36.26-79.93-36.26-79.93l13.53-0.41c0,0-13.13,45.55,23.16,61.03c6.58-10.84,19.71-46.19,53.21-10.45
			c10.84,6.58,11.77-4.73,11.77-4.73s1.85-22.61,25.43-4.75c8.95,1.87-2.86-20.72,4.2-23.56c6.97-2.8-31.25-45.17-32.25-46.3
			C1134.62,1224.86,1140.59,1282.6,1126.39,1308.37z"/>
	</g>
	<g>
		<path class="st12" d="M1081.74,1190.48c-11.91-7.73-26.19-14.29-43.19-19.03"/>
		<path class="st12" d="M1081.77,1190.49c1,1.13,39.22,43.5,32.25,46.3c-7.06,2.84,4.75,25.43-4.2,23.56
			c-23.58-17.86-25.43,4.75-25.43,4.75s-0.92,11.31-11.77,4.73c-33.5-35.74-46.63-0.39-53.21,10.45
			c-36.29-15.48-23.16-61.03-23.16-61.03l-13.53,0.41c0,0-20.78,53.65,36.26,79.93c33.94,16.43,54.68,27.23,15.64,59.32
			c25.43-4.75,74.39-18.97,91.76-50.55C1140.59,1282.6,1134.62,1224.86,1081.77,1190.49z"/>
		<path class="st12" d="M1081.77,1190.49c-0.02,0.01-0.03-0.01-0.03-0.01"/>
	</g>
</g>
<path class="st2" d="M-123.5,2256.5"/>
<path class="st2" d="M983.3,1227.83L388.38,373.46c0,0,16.43-33.94,54.11-35.42c13.68,13.64,313.96,434.22,313.96,434.22"/>
<path class="st2" d="M750.85,764.67l287,408.44c0,0-6.38,45.35-57.72,46.85"/>
<path class="st2" d="M608.2,566.68"/>
<path class="st13" d="M813.97,939.86"/>
<path class="st13" d="M718.63,691.79"/>
<path class="st13" d="M668.19,668.32"/>
<ellipse transform="matrix(0.2117 -0.9773 0.9773 0.2117 72.7785 610.5163)" class="st12" cx="414.85" cy="260.14" rx="96.7" ry="38.43"/>
<ellipse transform="matrix(0.1409 -0.99 0.99 0.1409 73.7899 647.2948)" class="st14" cx="409.88" cy="281.13" rx="71.91" ry="19.46"/>
</svg>
